<svg id="Layer_1" data-name="Layer 1" xmlns="http://www.w3.org/2000/svg" viewBox="0 0 237.87 181.2"><defs><style>.cls-1{fill:#ccc;}.cls-2{fill:#048;}</style></defs><path class="cls-1" d="M268.94,203.4l-29,37.2H112.53V96.4h44.81v107Z" transform="translate(-31.06 -59.4)"/><path class="cls-2" d="M220.26,59.4l-28.8,37.2h-102q-8.19,0-8.2,5.9t8.2,5.9h73.4q26.2,0,43.8,12.8,18.21,13.61,18.2,35.2,0,21.4-18.38,34.6-17.17,12.6-43.55,12.6H31.06l28.77-37.2H162.89a31.6,31.6,0,0,0,12.58-2.4q7.2-3,7.19-8.2,0-5.4-7.2-8.2a36.29,36.29,0,0,0-12.6-2H89.46q-24.39,0-40.8-11.2-17.59-12-17.6-31.8,0-20,17.6-32,16.41-11.2,40.8-11.2Z" transform="translate(-31.06 -59.4)"/><rect class="cls-1" x="81.47" y="37" width="44.8" height="67.66"/><polygon class="cls-1" points="81.47 146.21 81.47 181.2 208.87 181.2 236.15 146.21 81.47 146.21"/></svg>